<svg xmlns="http://www.w3.org/2000/svg" width="24" height="24" viewBox="0 0 24 24">
    <g fill="none" fill-rule="evenodd">
        <g>
            <g>
                <g>
                    <path d="M0 0H24V24H0z" transform="translate(-1284 -270) translate(964 250) translate(320 20)"/>
                    <path fill="#FFF" fill-rule="nonzero" d="M14 5c-.256 0-.512.1-.707.295l-.086.086c-.391.39-.391 1.024 0 1.414l3.863 3.863H4c-.552 0-1 .448-1 1s.448 1 1 1h13.07l-3.863 3.863c-.391.391-.391 1.025 0 1.415l.086.085c.391.391 1.024.391 1.414 0l5.656-5.656c.391-.39.391-1.024 0-1.414l-5.656-5.656C14.512 5.099 14.256 5 14 5z" transform="translate(-1284 -270) translate(964 250) translate(320 20)"/>
                </g>
            </g>
        </g>
    </g>
</svg>
