<svg xmlns="http://www.w3.org/2000/svg" width="24" height="24" viewBox="0 0 24 24">
    <g fill="none" fill-rule="evenodd">
        <g>
            <g>
                <g>
                    <path d="M0 0H24V24H0z" transform="translate(-192 -766) translate(24 664) translate(168 102)"/>
                    <g fill-rule="nonzero">
                        <path fill="#CFD8DC" d="M0 17.5v-12h19v12c0 1.1-.9 2-2 2H2c-1.1 0-2-.9-2-2z" transform="translate(-192 -766) translate(24 664) translate(168 102) translate(2.5 2.5)"/>
                        <path fill="#F44336" d="M19 3.5v3H0v-3c0-1.1.9-2 2-2h15c1.1 0 2 .9 2 2z" transform="translate(-192 -766) translate(24 664) translate(168 102) translate(2.5 2.5)"/>
                        <g fill="#B71C1C" transform="translate(-192 -766) translate(24 664) translate(168 102) translate(2.5 2.5) translate(3.5 2)">
                            <circle cx="10.5" cy="1.5" r="1.5"/>
                            <circle cx="1.5" cy="1.5" r="1.5"/>
                        </g>
                        <g fill="#B0BEC5">
                            <path d="M10 0c-.55 0-1 .45-1 1v2.5c0 .55.45 1 1 1s1-.45 1-1V1c0-.55-.45-1-1-1zM1 0C.45 0 0 .45 0 1v2.5c0 .55.45 1 1 1s1-.45 1-1V1c0-.55-.45-1-1-1z" transform="translate(-192 -766) translate(24 664) translate(168 102) translate(2.5 2.5) translate(4)"/>
                        </g>
                        <g fill="#90A4AE">
                            <path d="M0 0H2V2H0zM3 0H5V2H3zM6 0H8V2H6zM9 0H11V2H9zM0 3H2V5H0zM3 3H5V5H3zM6 3H8V5H6zM9 3H11V5H9zM0 6H2V8H0zM3 6H5V8H3zM6 6H8V8H6zM9 6H11V8H9z" transform="translate(-192 -766) translate(24 664) translate(168 102) translate(2.5 2.5) translate(4 8.5)"/>
                        </g>
                    </g>
                </g>
            </g>
        </g>
    </g>
</svg>
