<svg xmlns="http://www.w3.org/2000/svg" width="32" height="32" viewBox="0 0 32 32">
    <g fill="none" fill-rule="evenodd">
        <g>
            <g>
                <path fill="#7DA5C5" fill-rule="nonzero" d="M26 16c0 5.523-4.477 10-10 10S6 21.523 6 16 10.477 6 16 6s10 4.477 10 10z" transform="translate(-108 -428) translate(108 428)"/>
                <path d="M0 0H32V32H0z" transform="translate(-108 -428) translate(108 428)"/>
                <path fill="#FFF" fill-rule="nonzero" d="M15 15L17 15 17 20.5 15 20.5zM17.25 12.25c0 .69-.56 1.25-1.25 1.25s-1.25-.56-1.25-1.25S15.31 11 16 11s1.25.56 1.25 1.25z" transform="translate(-108 -428) translate(108 428)"/>
            </g>
        </g>
    </g>
</svg>
