<svg xmlns="http://www.w3.org/2000/svg" width="134" height="18" viewBox="0 0 134 18">
    <g fill="none" fill-rule="evenodd">
        <g fill="#FFF">
            <g>
                <path d="M121.257 4.797L121.257 18 117.538 18 117.538 0 122.532 0 129.818 13.413 129.818 0 133.538 0 133.538 18 128.736 18 121.257 4.797 121.257 4.797zM104.57 2.992c-1.794 0-3.064.569-3.843 1.71-.618.892-.918 2.304-.918 4.264 0 2.093.39 3.618 1.154 4.61.763.992 1.964 1.447 3.619 1.447 1.598 0 2.781-.488 3.548-1.463.756-.98 1.137-2.487 1.137-4.533 0-1.873-.307-3.284-.923-4.282-.727-1.154-1.978-1.748-3.773-1.753zM104.545 0c1.816 0 3.428.3 4.805.906 1.628.73 2.767 1.941 3.417 3.636.512 1.338.772 2.902.772 4.724 0 1.821-.312 3.368-.943 4.697-.71 1.527-1.997 2.723-3.59 3.334-1.336.488-2.753.726-4.178.701-2.047 0-3.83-.373-5.357-1.118-1.278-.631-2.307-1.661-2.925-2.928-.673-1.339-1.008-2.959-1.007-4.86 0-3.393.861-5.809 2.584-7.246 1.453-1.214 3.615-1.83 6.422-1.842V0zM84.376 7.306h9.162V18h-8.325c-1.452 0-2.602-.105-3.439-.312-.836-.204-1.62-.573-2.303-1.083-1.951-1.46-2.93-3.965-2.933-7.52 0-2.346.469-4.285 1.398-5.825.646-1.097 1.633-1.966 2.82-2.484C81.946.267 83.482 0 85.402 0h8.136v3.206h-7.684c-1.654 0-2.868.347-3.62 1.049-.882.83-1.323 2.312-1.326 4.45-.013 1.003.105 2.003.353 2.977.229.879.547 1.538.943 1.966.401.42.917.723 1.487.873.752.199 1.53.291 2.31.275h3.587v-4.28h-5.204v-3.21h-.008zM73.533.005V3.21h-4.824c-1.266 0-2.19.089-2.762.273-.573.178-1.076.544-1.434 1.043-.239.316-.415.678-.52 1.065-.13.606-.213 1.222-.247 1.842h9.792v3.212h-9.797c.121 1.56.567 2.635 1.312 3.249.745.613 2.019.902 3.82.902h4.665V18h-4.83c-1.156.01-2.312-.075-3.457-.252-1.562-.258-2.805-.968-3.737-2.115-1.317-1.657-1.976-3.899-1.976-6.726 0-3.146.93-5.578 2.793-7.318.587-.556 1.282-.975 2.038-1.227C65.091.125 66.055 0 67.273 0l6.26.005zM43.49 7.95h5.544c.926 0 1.587-.128 1.98-.393.584-.408.884-1.096.884-2.089 0-1.094-.45-1.805-1.334-2.108-.5-.125-1.015-.177-1.53-.154H43.49V7.95zm0 3.21V18h-3.952V0h9.072c2.592 0 4.423.318 5.447.962.688.418 1.25 1.008 1.626 1.708.39.723.59 1.53.58 2.347 0 1.708-.449 3.028-1.345 3.96-.615.602-1.373 1.047-2.207 1.295.59.168 1.147.43 1.648.776.42.34.764.762 1.009 1.238.21.392.372.807.483 1.235.119.584.198 1.175.237 1.77.108 1.296.261 2.196.45 2.707H52.1c-.144-.422-.276-1.263-.41-2.552-.11-1.053-.306-1.865-.599-2.421-.28-.56-.733-1.017-1.296-1.309-.72-.38-1.757-.561-3.125-.558l-3.18.002zM27.53 0c1.817 0 3.418.302 4.803.906 1.602.698 2.84 2.013 3.424 3.636.518 1.338.781 2.902.781 4.724 0 1.821-.316 3.368-.952 4.697-.71 1.53-2 2.727-3.598 3.334-1.335.49-2.752.728-4.177.701-2.055 0-3.83-.373-5.351-1.119-1.276-.63-2.303-1.66-2.917-2.927-.666-1.34-1.001-2.959-1.005-4.86 0-3.394.862-5.809 2.585-7.246C22.586.632 24.722.018 27.53.004V0zm.035 2.992c-1.79 0-3.072.57-3.843 1.71-.607.892-.908 2.303-.908 4.264 0 2.093.383 3.618 1.148 4.61.764.991 1.958 1.446 3.614 1.446 1.597 0 2.779-.487 3.544-1.462.756-.98 1.132-2.487 1.132-4.533 0-1.873-.3-3.285-.909-4.282-.726-1.154-1.983-1.748-3.776-1.753h-.002zM14.538 7.352v3.22H4.213V18H.538V8.588c.022-2.69.271-4.463.748-5.318C1.82 2.14 2.724 1.247 3.835.754 4.962.253 6.528 0 8.549 0h5.99v3.203H9.014c-1.716.027-2.82.168-3.31.437-.97.406-1.468 1.33-1.496 2.752v.96h10.33z" transform="translate(-156 -35) translate(156 35)"/>
            </g>
        </g>
    </g>
</svg>
