<svg xmlns="http://www.w3.org/2000/svg" width="24" height="24" viewBox="0 0 24 24">
    <g fill="none" fill-rule="evenodd">
        <g>
            <g>
                <path d="M0 0H24V24H0z" transform="translate(-1055 -330) translate(1055 330)"/>
                <g fill="#000" fill-opacity=".38" fill-rule="nonzero">
                    <path d="M8.188.361l-7 3.111C.465 3.793 0 4.509 0 5.3V10c0 7.83 6.439 11.486 9 12 2.561-.514 9-4.17 9-12V5.3c0-.79-.465-1.507-1.188-1.828l-7-3.111c-.517-.23-1.107-.23-1.624 0zm-.895 14.346l-2.77-2.77c-.39-.39-.39-1.024 0-1.414.39-.39 1.024-.39 1.414 0L8 12.586l5.085-5.085c.39-.39 1.024-.39 1.414 0 .39.39.39 1.024 0 1.414l-5.792 5.792c-.39.39-1.024.39-1.414 0z" transform="translate(-1055 -330) translate(1055 330) translate(3 1)"/>
                </g>
            </g>
        </g>
    </g>
</svg>
